<?xml version="1.0" ?><!DOCTYPE svg  PUBLIC '-//W3C//DTD SVG 1.1//EN'  'http://www.w3.org/Graphics/SVG/1.1/DTD/svg11.dtd'><svg enable-background="new 0 0 512 512" id="Layer_1" version="1.1" viewBox="0 0 512 512" xml:space="preserve" xmlns="http://www.w3.org/2000/svg" xmlns:xlink="http://www.w3.org/1999/xlink"><g><path d="M334.6,135.6c6.3,7,18.2,21.2,24.2,36.2c0.2,0.5,0.4,1,0.5,1.4l0.6-1.5c6-15,17.9-29.2,24.2-36.1l4.2-4.4   c6.7-7.4,10.8-17.3,10.8-28.1c0-22.2-17.3-40.5-39.2-41.8c-0.2,0-0.3,0-0.5,0l-0.6,0c-21.9,1.4-39.2,19.6-39.2,41.8   c0,10.8,4.1,20.7,10.8,28.1L334.6,135.6z"/><path d="M162.9,299.7c-0.2,0-0.3,0-0.5,0l-0.6,0c-22.1,1.4-39.6,19.8-39.6,42.2c0,10.9,4.1,20.9,10.9,28.4l4.3,4.5   c6.4,7,18.4,21.3,24.4,36.5c0.2,0.5,0.4,1,0.5,1.5l0.6-1.5c6-15.1,18-29.4,24.4-36.4l4.3-4.5c6.8-7.5,10.9-17.4,10.9-28.4   C202.5,319.4,185,301,162.9,299.7z"/><path d="M177.5,402.4c2.4,3.2,3.8,7.2,3.8,11.4c0,9.6-7.3,17.7-16.7,18.8l-5.7-0.2c-8.8-1.6-15.5-9.3-15.5-18.6   c0-4.2,1.4-8.2,3.9-11.4c-3.4-5.6-7.3-10.8-10.8-15.1c-7.1,6.9-11.1,16.4-11.1,26.5c0,20.4,16.6,37.1,37.1,37.1   c20.4,0,37.1-16.6,37.1-37.1c0-10-4.1-19.6-11.1-26.5C184.8,391.6,180.9,396.8,177.5,402.4z"/><path d="M384,149.6c-3.5,4.3-7.2,9.5-10.6,15c3.1,3.4,4.8,7.8,4.8,12.5c0,10.1-7.9,18.3-17.8,18.9c-0.4,0-0.8,0-1.1,0   c-0.9,0-1.8,0-2.7-0.2c-9.2-1.3-16.3-9.1-16.3-18.7c0-4.7,1.7-9.1,4.8-12.5c-3.3-5.6-7.1-10.8-10.6-15.1   c-7.8,6.9-12.4,17-12.4,27.6c0,9.5,3.6,18.2,9.5,24.7l-36.6,52.5c-4.5-1.9-9.4-3-14.6-3c-6.3,0-12.1,1.6-17.3,4.3l-76.7-47.6   c-2.6-17.9-18-31.8-36.6-31.8c-20.4,0-37.1,16.6-37.1,37.1c0,17.5,12.3,32.3,28.7,36.1l3.9,44.8c4.9-2,10.3-3.2,15.9-3.6l1.1-0.1   c0.3,0,0.6,0,0.9,0l-3.6-41.5c11-3,20-10.9,24.4-21.2l65.4,40.6c-3.7,5.8-5.9,12.6-5.9,20c0,20.4,16.6,37.1,37.1,37.1   c20.4,0,37.1-16.6,37.1-37.1c0-8.7-3-16.7-8.1-23l37.2-53.4c3.9,1.4,8.1,2.2,12.5,2.2c20.4,0,37.1-16.6,37.1-37.1   C396.4,166.6,391.8,156.6,384,149.6z M149.9,232.3c-10.4,0-18.9-8.5-18.9-18.9c0-10.5,8.5-19,18.9-19c10.5,0,19,8.5,19,19   C168.9,223.8,160.4,232.3,149.9,232.3z M280.6,307.3c-10.5,0-18.9-8.5-18.9-18.9c0-10.4,8.5-18.9,18.9-18.9   c10.5,0,18.9,8.5,18.9,18.9C299.6,298.9,291.1,307.3,280.6,307.3z"/></g></svg>